<svg xmlns="http://www.w3.org/2000/svg" width="30" height="28.342" viewBox="0 0 30 28.342">
  <g id="_Tab_Bar_icon1" data-name=" Tab Bar_icon1" transform="translate(-867.24 -198.418)">
    <g id="Group_355" data-name="Group 355">
      <path id="Path_528" data-name="Path 528" d="M895.236,226.76H869.245a2,2,0,0,1-1.994-2.206l1.805-17.007a2,2,0,0,1,1.994-1.787h2.721v2H871.05l-1.809,17.005,25.995-.005-1.8-17-9.215,0v-2h9.211a2,2,0,0,1,1.993,1.787l1.8,17.007a2,2,0,0,1-1.993,2.206Z" fill="#aaa"/>
    </g>
    <g id="Group_359" data-name="Group 359">
      <g id="Group_356" data-name="Group 356">
        <path id="Path_529" data-name="Path 529" d="M879.1,211.99a6.781,6.781,0,1,1,3.6-1.042A6.786,6.786,0,0,1,879.1,211.99Zm-.019-11.567a4.784,4.784,0,1,0,4.056,2.233A4.758,4.758,0,0,0,879.077,200.423Z" fill="#aaa"/>
      </g>
      <g id="Group_357" data-name="Group 357">
        <path id="Path_530" data-name="Path 530" d="M883.829,213.738a1,1,0,0,1-.848-.467l-1.422-2.26a1,1,0,1,1,1.692-1.065l1.423,2.259a1,1,0,0,1-.845,1.533Z" fill="#aaa"/>
      </g>
      <g id="Group_358" data-name="Group 358">
        <rect id="Rectangle_213" data-name="Rectangle 213" width="2.923" height="8.954" transform="translate(882.116 212.764) rotate(-32.202)" fill="#aaa"/>
      </g>
    </g>
    <g id="Group_366" data-name="Group 366">
      <g id="Group_361" data-name="Group 361">
        <g id="Group_360" data-name="Group 360">
          <path id="Path_531" data-name="Path 531" d="M870.189,217.661a1,1,0,0,1-.862-.491c-.191-.322-.283-.523-.283-.523a1,1,0,0,1,1.813-.846c.01.022.074.152.192.351a1,1,0,0,1-.86,1.509Z" fill="#aaa"/>
        </g>
      </g>
      <g id="Group_363" data-name="Group 363">
        <g id="Group_362" data-name="Group 362">
          <path id="Path_532" data-name="Path 532" d="M876.35,221.57h-.033a7.823,7.823,0,0,1-1.083-.109,1,1,0,1,1,.338-1.972,5.815,5.815,0,0,0,.81.082,1,1,0,0,1-.032,2Zm7.24-3.839-.02.027a8.24,8.24,0,0,1-.724.813,1,1,0,0,1-1.4-1.431,5.74,5.74,0,0,0,.542-.608,1,1,0,0,1,1.6,1.2Zm-4.426,3.43a1,1,0,0,1-.295-1.956c.152-.047.307-.1.463-.156a1,1,0,0,0,.188-.1,1,1,0,1,1,1.048,1.7,2.972,2.972,0,0,1-.553.272c-.187.068-.372.131-.555.187A.985.985,0,0,1,879.164,221.161Zm-6.394-.743a1,1,0,0,1-.552-.166,8.737,8.737,0,0,1-.857-.65,1,1,0,1,1,1.3-1.518,6.783,6.783,0,0,0,.659.5,1,1,0,0,1-.553,1.833Zm9.356-2.562h0Zm10.633-2.075a.994.994,0,0,1-.556-.17,8.176,8.176,0,0,0-.726-.437,1,1,0,1,1,.935-1.767,10.1,10.1,0,0,1,.906.544,1,1,0,0,1-.559,1.83Zm-4.49-1.192a1,1,0,0,1-.153-1.987,6.17,6.17,0,0,1,.968-.076h.156a1,1,0,1,1-.044,2h-.112a4.365,4.365,0,0,0-.66.051A.907.907,0,0,1,888.269,214.589Z" fill="#aaa"/>
        </g>
      </g>
      <g id="Group_365" data-name="Group 365">
        <g id="Group_364" data-name="Group 364">
          <path id="Path_533" data-name="Path 533" d="M895.288,218.021a1,1,0,0,1-.74-.327c-.109-.119-.216-.233-.323-.345a1,1,0,0,1,1.441-1.387q.178.186.36.386a1,1,0,0,1-.738,1.673Z" fill="#aaa"/>
        </g>
      </g>
    </g>
  </g>
</svg>
