<svg id="bottom_bar_icon1" xmlns="http://www.w3.org/2000/svg" width="30" height="28.066" viewBox="0 0 30 28.066">
  <path id="Path_392" data-name="Path 392" d="M29.615,18.474a.879.879,0,0,0-.818-.09l-5.97,2.365L14.7,19.46A6.269,6.269,0,0,0,4,19.552L.571,20.831A.879.879,0,0,0,0,21.654V43.69a.879.879,0,0,0,1.186.823l6.353-2.373,15.25,2.418a.879.879,0,0,0,.461-.051l6.194-2.454A.879.879,0,0,0,30,41.236V19.2A.879.879,0,0,0,29.615,18.474ZM9.374,18.261a4.51,4.51,0,1,1-3.189,1.321A4.481,4.481,0,0,1,9.374,18.261Zm4.974,8.324,4.572,4.572a.82.82,0,1,1-1.16,1.16l-4.572-4.572a6.295,6.295,0,0,0,1.16-1.16ZM28.242,40.639,23.806,42.4v-.416a.879.879,0,0,0-1.758,0v.68l-13.8-2.188V39.62a.879.879,0,1,0-1.758,0v1.036L1.758,42.424V22.264L3.2,21.727a6.265,6.265,0,0,0,3.295,6.609v.6a.879.879,0,1,0,1.758,0v0a6.3,6.3,0,0,0,3.342-.3l4.927,4.927a2.578,2.578,0,0,0,3.646-3.646l-4.927-4.927a6.309,6.309,0,0,0,.243-3.624l6.569,1.041v.959a.879.879,0,0,0,1.758,0V22.252l4.436-1.757Z" transform="translate(0 -16.503)" fill="#aaa"/>
  <path id="Path_393" data-name="Path 393" d="M377.172,165.44a.879.879,0,0,0-.879.879v1.223a.879.879,0,1,0,1.758,0v-1.223A.879.879,0,0,0,377.172,165.44Z" transform="translate(-354.245 -156.713)" fill="#aaa"/>
  <path id="Path_394" data-name="Path 394" d="M377.172,233.161a.879.879,0,0,0-.879.879v1.223a.879.879,0,0,0,1.758,0V234.04A.879.879,0,0,0,377.172,233.161Z" transform="translate(-354.245 -220.466)" fill="#aaa"/>
  <path id="Path_395" data-name="Path 395" d="M377.172,300.882a.879.879,0,0,0-.879.879v1.223a.879.879,0,0,0,1.758,0v-1.223A.879.879,0,0,0,377.172,300.882Z" transform="translate(-354.245 -284.219)" fill="#aaa"/>
  <path id="Path_396" data-name="Path 396" d="M377.172,368.6a.879.879,0,0,0-.879.879v1.223a.879.879,0,0,0,1.758,0v-1.223A.879.879,0,0,0,377.172,368.6Z" transform="translate(-354.245 -347.972)" fill="#aaa"/>
  <path id="Path_397" data-name="Path 397" d="M111.654,260.583a.879.879,0,0,0-.879.879v1.223a.879.879,0,0,0,1.758,0v-1.223A.879.879,0,0,0,111.654,260.583Z" transform="translate(-104.284 -246.281)" fill="#aaa"/>
  <path id="Path_398" data-name="Path 398" d="M111.654,328.3a.879.879,0,0,0-.879.879v1.223a.879.879,0,0,0,1.758,0v-1.223A.879.879,0,0,0,111.654,328.3Z" transform="translate(-104.284 -310.035)" fill="#aaa"/>
</svg>
