<svg id="bottom_bar_icon2" xmlns="http://www.w3.org/2000/svg" width="30" height="30" viewBox="0 0 30 30">
  <path id="Path_475" data-name="Path 475" d="M28.617,8.692,29.4,7.508a.873.873,0,0,0,.05-.086A5.128,5.128,0,0,0,21.34,1.4a14.979,14.979,0,1,0,7.277,7.294ZM24.866,1.758A3.36,3.36,0,0,1,27.9,6.587L24.866,11.2,21.836,6.587a3.36,3.36,0,0,1,3.031-4.829ZM12.661,28.035c-1.288-.795-2.575-2.92-3.379-6.032a37.269,37.269,0,0,1,4.839-.418v6.626A13.224,13.224,0,0,1,12.661,28.035ZM1.788,15.879H6.712A31.044,31.044,0,0,0,7.184,20.6a28.2,28.2,0,0,0-3.651,1.016A13.149,13.149,0,0,1,1.788,15.879Zm1.748-7.5A28.157,28.157,0,0,0,7.185,9.4a31.045,31.045,0,0,0-.472,4.726H1.788A13.148,13.148,0,0,1,3.536,8.378Zm9.125-6.413a13.224,13.224,0,0,1,1.46-.177V8.413a37.232,37.232,0,0,1-4.838-.42C10.087,4.884,11.373,2.759,12.661,1.965Zm1.46,8.207v3.949H8.469a29.271,29.271,0,0,1,.438-4.408A38.965,38.965,0,0,0,14.121,10.172ZM8.469,15.879h5.652v3.949a38.981,38.981,0,0,0-5.214.456A29.269,29.269,0,0,1,8.469,15.879ZM9.4,3A15.278,15.278,0,0,0,8.1,5.858c-.2.582-.381,1.191-.541,1.821a26.954,26.954,0,0,1-3-.808A13.324,13.324,0,0,1,9.4,3ZM4.551,23.125a27,27,0,0,1,3-.807c.159.631.339,1.241.542,1.824A15.284,15.284,0,0,0,9.4,27,13.323,13.323,0,0,1,4.551,23.125Zm11.328,5.088v-2.1a12.37,12.37,0,0,0,9.281-6.12.879.879,0,1,0-1.524-.876,10.611,10.611,0,0,1-7.757,5.224V1.788a13.143,13.143,0,0,1,4.389,1.064,5.07,5.07,0,0,0,.02,4.57.873.873,0,0,0,.05.086l3.794,5.776a.879.879,0,0,0,1.469,0l1.845-2.808A13.243,13.243,0,0,1,15.879,28.212Z" transform="translate(0 0)" fill="#aaa"/>
  <path id="Path_476" data-name="Path 476" d="M381.023,45.86a2.541,2.541,0,1,0,2.541-2.537A2.542,2.542,0,0,0,381.023,45.86Zm1.758,0a.783.783,0,1,1,.783.779A.782.782,0,0,1,382.781,45.86Z" transform="translate(-358.697 -40.785)" fill="#aaa"/>
  <path id="Path_477" data-name="Path 477" d="M386.292,242.681l-.719-.553.719-.553a.879.879,0,1,0-1.071-1.394l-1.091.838-1.091-.838a.879.879,0,0,0-1.071,1.394l.719.553-.719.553a.879.879,0,1,0,1.071,1.394l1.091-.838,1.091.838a.879.879,0,1,0,1.071-1.394Z" transform="translate(-359.263 -225.937)" fill="#aaa"/>
</svg>
