<svg xmlns="http://www.w3.org/2000/svg" width="29.98" height="29.216" viewBox="0 0 29.98 29.216">
  <g id="_Tab_Bar_icon2_hover" data-name=" Tab Bar_icon2_hover" transform="translate(2254.258 330.676)">
    <g id="Group_314" data-name="Group 314" transform="translate(-3216.24 -489.236)">
      <path id="Path_499" data-name="Path 499" d="M979.536,173.8h0a9.082,9.082,0,1,0-14.924.018H964.6s.131.168.174.225c.112.148.224.295.34.44,2.784,3.467,6.947,9,6.947,9s4.405-5.8,6.941-8.992c.129-.162.255-.326.38-.492C979.421,173.948,979.536,173.8,979.536,173.8Z" fill="#fbe45a"/>
      <path id="Path_500" data-name="Path 500" d="M972.063,184.482h0a1,1,0,0,1-.8-.4c-.042-.055-4.187-5.56-6.929-8.974-.121-.151-.24-.307-.358-.463l-.166-.215a1.143,1.143,0,0,1-.082-.123,10.082,10.082,0,1,1,16.678-.018,1.007,1.007,0,0,1-.083.125l-.139.181c-.133.176-.265.348-.4.517-2.5,3.15-6.883,8.916-6.927,8.974A1,1,0,0,1,972.063,184.482Zm-6.612-11.2.125.163c.1.137.209.276.32.413,2.031,2.53,4.821,6.191,6.17,7.972,1.393-1.825,4.291-5.611,6.155-7.959.124-.157.244-.313.364-.473l.1-.134.021-.031a8.081,8.081,0,1,0-13.28.016Z" fill="#333"/>
    </g>
    <g id="Group_315" data-name="Group 315" transform="translate(-3216.24 -489.236)">
      <path id="Path_501" data-name="Path 501" d="M972.063,173.731a5,5,0,1,1,5-5A5.006,5.006,0,0,1,972.063,173.731Zm0-8a3,3,0,1,0,3,3A3,3,0,0,0,972.063,165.731Z" fill="#333"/>
    </g>
    <g id="Group_316" data-name="Group 316" transform="translate(-3216.24 -489.236)">
      <path id="Path_502" data-name="Path 502" d="M972.062,187.776c-3.585,0-7.215-1.2-7.215-3.486,0-1.744,2.225-3.084,5.67-3.413l.189,1.991c-2.7.258-3.859,1.168-3.859,1.422,0,.382,1.793,1.486,5.215,1.486s5.216-1.1,5.216-1.486c0-.2-.929-1.078-3.562-1.39l.236-1.986c3.285.39,5.326,1.684,5.326,3.376C979.278,186.579,975.648,187.776,972.062,187.776Z" fill="#333"/>
    </g>
    <g id="Group_317" data-name="Group 317" transform="translate(-3216.24 -489.236)">
      <path id="Path_503" data-name="Path 503" d="M981.145,184.482a1,1,0,0,1-.939-1.346,1.078,1.078,0,0,1,.69-.636c.132-.053.382-.152.711-.318a1,1,0,1,1,.9,1.784c-.406.205-.713.327-.876.392a1.011,1.011,0,0,0,.446-.523A1,1,0,0,1,981.145,184.482Zm.936-.649h0Zm0,0v0Zm0,0v0Zm2.416-1.485a1,1,0,0,1-.684-1.73c.212-.2.426-.415.639-.653a1,1,0,0,1,1.488,1.337c-.254.283-.508.54-.759.776A1,1,0,0,1,984.5,182.343Zm2.425-3.157a1,1,0,0,1-.873-1.485q.217-.395.423-.83a1,1,0,1,1,1.81.85q-.234.5-.485.949A1,1,0,0,1,986.924,179.186Zm1.481-3.7a1,1,0,0,1-.966-1.263c.082-.3.157-.6.227-.922a1,1,0,1,1,1.953.428c-.076.351-.161.691-.25,1.019A1,1,0,0,1,988.405,175.483Z" fill="#333"/>
    </g>
    <g id="Group_320" data-name="Group 320" transform="translate(-3216.24 -489.236)">
      <g id="Group_318" data-name="Group 318">
        <path id="Path_504" data-name="Path 504" d="M986.7,171.988a1,1,0,0,1-.707-1.707l4.267-4.266a1,1,0,0,1,1.414,1.414L987.4,171.7A.993.993,0,0,1,986.7,171.988Z" fill="#333"/>
      </g>
      <g id="Group_319" data-name="Group 319">
        <path id="Path_505" data-name="Path 505" d="M990.962,171.988a.993.993,0,0,1-.707-.293l-4.267-4.266a1,1,0,0,1,1.414-1.414l4.267,4.266a1,1,0,0,1-.707,1.707Z" fill="#333"/>
      </g>
    </g>
  </g>
</svg>
