<svg xmlns="http://www.w3.org/2000/svg" width="29.98" height="29.216" viewBox="0 0 29.98 29.216">
  <g id="_Tab_Bar_icon2" data-name=" Tab Bar_icon2" transform="translate(2254.258 291.089)">
    <g id="Group_343" data-name="Group 343" transform="translate(-3216.24 -489.236)">
      <path id="Path_518" data-name="Path 518" d="M972.063,224.068h0a1,1,0,0,1-.8-.4c-.042-.055-4.187-5.56-6.929-8.974-.121-.151-.239-.307-.357-.462l-.166-.214a1.111,1.111,0,0,1-.082-.124,10.082,10.082,0,1,1,16.677-.019,1.007,1.007,0,0,1-.083.125l-.139.181c-.133.176-.264.346-.4.515-2.5,3.152-6.884,8.918-6.928,8.975A1,1,0,0,1,972.063,224.068Zm-6.612-11.2.128.166c.1.132.206.272.317.409,2.031,2.53,4.821,6.19,6.17,7.972,1.393-1.825,4.291-5.611,6.155-7.959.123-.156.244-.313.364-.473l.1-.134.021-.031a8.081,8.081,0,1,0-13.28.016Z" fill="#aaa"/>
    </g>
    <g id="Group_344" data-name="Group 344" transform="translate(-3216.24 -489.236)">
      <path id="Path_519" data-name="Path 519" d="M972.063,213.318a5,5,0,1,1,5-5A5.006,5.006,0,0,1,972.063,213.318Zm0-8a3,3,0,1,0,3,3A3,3,0,0,0,972.063,205.318Z" fill="#aaa"/>
    </g>
    <g id="Group_345" data-name="Group 345" transform="translate(-3216.24 -489.236)">
      <path id="Path_520" data-name="Path 520" d="M972.062,227.363c-3.585,0-7.215-1.2-7.215-3.486,0-1.745,2.225-3.084,5.67-3.414l.189,1.992c-2.7.257-3.859,1.168-3.859,1.422,0,.382,1.793,1.486,5.215,1.486s5.216-1.1,5.216-1.486c0-.2-.929-1.078-3.562-1.391l.236-1.986c3.285.39,5.326,1.684,5.326,3.377C979.278,226.166,975.648,227.363,972.062,227.363Z" fill="#aaa"/>
    </g>
    <g id="Group_346" data-name="Group 346" transform="translate(-3216.24 -489.236)">
      <path id="Path_521" data-name="Path 521" d="M981.145,224.069a1,1,0,0,1-.936-1.355,1.08,1.08,0,0,1,.684-.627c.131-.052.382-.151.713-.319a1,1,0,0,1,.9,1.784c-.409.207-.718.33-.881.4a1.008,1.008,0,0,0,.447-.518A1,1,0,0,1,981.145,224.069Zm.933-.642v0Zm0,0v0Zm0,0v0Zm2.419-1.492a1,1,0,0,1-.684-1.73c.212-.2.426-.416.639-.653a1,1,0,0,1,1.488,1.337c-.254.282-.508.54-.759.776A1,1,0,0,1,984.5,221.93Zm2.425-3.157a1,1,0,0,1-.873-1.485q.217-.395.423-.83a1,1,0,1,1,1.81.85q-.234.5-.485.949A1,1,0,0,1,986.924,218.773Zm1.481-3.7a1,1,0,0,1-.966-1.263c.082-.3.157-.6.227-.922a1,1,0,1,1,1.953.428c-.076.351-.161.691-.25,1.019A1,1,0,0,1,988.405,215.07Z" fill="#aaa"/>
    </g>
    <g id="Group_349" data-name="Group 349" transform="translate(-3216.24 -489.236)">
      <g id="Group_347" data-name="Group 347">
        <path id="Path_522" data-name="Path 522" d="M986.7,211.575a1,1,0,0,1-.707-1.707l4.267-4.266a1,1,0,1,1,1.414,1.414l-4.267,4.266A.993.993,0,0,1,986.7,211.575Z" fill="#aaa"/>
      </g>
      <g id="Group_348" data-name="Group 348">
        <path id="Path_523" data-name="Path 523" d="M990.962,211.575a.993.993,0,0,1-.707-.293l-4.267-4.266A1,1,0,1,1,987.4,205.6l4.267,4.266a1,1,0,0,1-.707,1.707Z" fill="#aaa"/>
      </g>
    </g>
  </g>
</svg>
