<svg xmlns="http://www.w3.org/2000/svg" width="30.195" height="27.755" viewBox="0 0 30.195 27.755">
  <g id="_Tab_Bar_icon4_hover" data-name=" Tab Bar_icon4_hover" transform="translate(2162.381 329.945)">
    <g id="Group_312" data-name="Group 312" transform="translate(-3216.24 -489.236)">
      <path id="Path_496" data-name="Path 496" d="M1082.128,179.492h-22.6a1.929,1.929,0,0,1-1.926-1.927V161.217a1.928,1.928,0,0,1,1.926-1.926h22.6a1.929,1.929,0,0,1,1.926,1.926v16.348A1.93,1.93,0,0,1,1082.128,179.492Zm-22.526-2h22.452v-16.2H1059.6Z" fill="#333"/>
    </g>
    <g id="Group_313" data-name="Group 313" transform="translate(-3216.24 -489.236)">
      <path id="Path_497" data-name="Path 497" d="M1078.417,164.33h-22.661a.929.929,0,0,0-.9.958v20.758l2.535-3.515h21.022a.929.929,0,0,0,.9-.958V165.288A.929.929,0,0,0,1078.417,164.33Z" fill="#fbe45a"/>
      <path id="Path_498" data-name="Path 498" d="M1054.859,187.046a1.019,1.019,0,0,1-.307-.048,1,1,0,0,1-.693-.952V165.288a1.929,1.929,0,0,1,1.9-1.957h22.661a1.929,1.929,0,0,1,1.9,1.957v16.285a1.93,1.93,0,0,1-1.9,1.958h-20.51l-2.237,3.1A1,1,0,0,1,1054.859,187.046Zm1-21.715v17.62l.726-1.005a1,1,0,0,1,.811-.415h20.917v-16.2Zm22.558,0h0Z" fill="#333"/>
    </g>
    <g id="Group_325" data-name="Group 325" transform="translate(-3216.24 -489.236)">
      <g id="Group_323" data-name="Group 323">
        <path id="Path_508" data-name="Path 508" d="M1076.2,172.987h-9.112a1,1,0,0,1,0-2h9.112a1,1,0,0,1,0,2Z" fill="#333"/>
      </g>
      <g id="Group_324" data-name="Group 324">
        <path id="Path_509" data-name="Path 509" d="M1071.643,176.308h-4.557a1,1,0,0,1,0-2h4.557a1,1,0,0,1,0,2Z" fill="#333"/>
      </g>
    </g>
    <g id="Group_341" data-name="Group 341" transform="translate(-3216.24 -489.236)">
      <g id="Group_339" data-name="Group 339">
        <circle id="Ellipse_109" data-name="Ellipse 109" cx="1.81" cy="1.81" r="1.81" transform="translate(1059.275 168.804)" fill="#333"/>
      </g>
      <g id="Group_340" data-name="Group 340">
        <path id="Path_516" data-name="Path 516" d="M1062.925,177.222h-3.68c-1.07,0-1.893-.724-1.746-1.536h0a3,3,0,0,1,3.128-2.086h.915a3,3,0,0,1,3.128,2.086h0C1064.818,176.5,1063.995,177.222,1062.925,177.222Z" fill="#333"/>
      </g>
    </g>
  </g>
</svg>
