<svg xmlns="http://www.w3.org/2000/svg" width="90" height="71.455" viewBox="0 0 90 71.455"><defs><style>.a{fill:#707070;}</style></defs><path class="a" d="M87.095,23.935H2.905A2.905,2.905,0,0,0,0,26.84V92.485A2.905,2.905,0,0,0,2.905,95.39H87.095A2.905,2.905,0,0,0,90,92.485V26.84A2.906,2.906,0,0,0,87.095,23.935Zm-2.905,5.811V85.179L60.947,60.463a2.9,2.9,0,0,0-2.116-.915h0a2.908,2.908,0,0,0-2.116.914L46.79,71.01,33.484,53.465a2.905,2.905,0,0,0-2.315-1.15h0a2.9,2.9,0,0,0-2.315,1.154L5.811,83.952V29.746ZM80.351,89.58H8.842L31.172,60.033,44.236,77.259a2.906,2.906,0,0,0,4.431.235l10.163-10.8Z" transform="translate(0 -23.935)"/><path class="a" d="M140.133,71.472a9.552,9.552,0,1,0-9.552-9.552A9.563,9.563,0,0,0,140.133,71.472Zm0-13.293a3.741,3.741,0,1,1-3.741,3.741A3.746,3.746,0,0,1,140.133,58.179Z" transform="translate(-79.995 -41.353)"/></svg>