<svg xmlns="http://www.w3.org/2000/svg" width="29.915" height="30.042" viewBox="0 0 29.915 30.042">
  <g id="_Tab_Bar_icon3" data-name=" Tab Bar_icon3" transform="translate(2250 290.247)">
    <g id="Group_461" data-name="Group 461" transform="translate(-3477.322 -489.12)">
      <g id="Group_459" data-name="Group 459">
        <path id="Path_599" data-name="Path 599" d="M1249.111,228.915h-19.789a2,2,0,0,1-2-2V200.873a2,2,0,0,1,2-2h14.337v2h-14.337v26.042h19.789V206.2h2v20.717A2,2,0,0,1,1249.111,228.915Z" fill="#aaa"/>
      </g>
      <g id="Group_460" data-name="Group 460">
        <path id="Path_600" data-name="Path 600" d="M1250.112,206.325h-6.452v-6.452Z" fill="#aaa"/>
        <path id="Path_601" data-name="Path 601" d="M1250.111,207.326h-6.452a1,1,0,0,1-1-1v-6.453a1,1,0,0,1,1.707-.707l6.452,6.452a1,1,0,0,1-.707,1.708Zm-5.452-2h3.038l-3.038-3.039Z" fill="#aaa"/>
      </g>
    </g>
    <g id="top_bar_icon6" data-name="top bar icon6" transform="translate(-3477.322 -489.12)">
      <g id="Path_158" data-name="Path 158">
        <path id="Path_602" data-name="Path 602" d="M1245.347,219.3v2.479h2.477l7.305-7.307-2.477-2.476Zm11.7-6.743a.656.656,0,0,0,0-.929v0l-1.546-1.545a.656.656,0,0,0-.929,0h0l-1.208,1.208,2.477,2.477Z" fill="#aaa"/>
      </g>
    </g>
    <g id="Group_464" data-name="Group 464" transform="translate(-3477.322 -489.12)">
      <g id="Group_462" data-name="Group 462">
        <path id="Path_603" data-name="Path 603" d="M1243.71,218.224H1234.6a1,1,0,0,1,0-2h9.112a1,1,0,0,1,0,2Z" fill="#aaa"/>
      </g>
      <g id="Group_463" data-name="Group 463">
        <path id="Path_604" data-name="Path 604" d="M1239.153,221.545H1234.6a1,1,0,0,1,0-2h4.555a1,1,0,0,1,0,2Z" fill="#aaa"/>
      </g>
    </g>
  </g>
</svg>
