<svg xmlns="http://www.w3.org/2000/svg" width="50" height="50" viewBox="0 0 50 50">
  <g id="_2-2_icon_2" data-name="2-2_icon_2" transform="translate(-310 -235)">
    <rect id="Rectangle_127" data-name="Rectangle 127" width="50" height="50" rx="10" transform="translate(310 235)" fill="#333"/>
    <g id="Group_172" data-name="Group 172" transform="translate(-2586.791 -2175)">
      <g id="calendar-with-a-clock-time-tools" transform="translate(2910 2421)">
        <path id="Path_318" data-name="Path 318" d="M3.635,4.543V.909a.909.909,0,0,1,1.817,0V4.543a.909.909,0,0,1-1.817,0Zm15.447.908a.908.908,0,0,0,.909-.908V.909a.909.909,0,0,0-1.818,0V4.543A.908.908,0,0,0,19.082,5.451ZM7.27,10.9H3.635v3.634H7.27ZM3.635,19.987H7.27V16.353H3.635Zm5.452-5.451h3.635V10.9H9.087Zm0,5.451h3.635V16.353H9.087ZM1.818,21.624V9.085H21.808v1.183h1.817V5.632a1.983,1.983,0,0,0-1.968-2H20.9v.909a1.817,1.817,0,0,1-3.634,0V3.634H6.361v.909a1.817,1.817,0,0,1-3.634,0V3.634H1.97A1.983,1.983,0,0,0,0,5.632V21.624a1.986,1.986,0,0,0,1.969,2H12.722V21.8H1.97A.172.172,0,0,1,1.818,21.624Zm16.355-7.087V10.9H14.539v3.634Z" transform="translate(-0.001)" fill="#fae06e"/>
      </g>
      <g id="baseline-create-24px" transform="translate(2924.202 2432.811)">
        <path id="Path_158" data-name="Path 158" d="M3,12.338V14.8H5.458l7.248-7.248L10.248,5.09ZM14.606,5.647a.653.653,0,0,0,0-.924L13.073,3.189a.653.653,0,0,0-.924,0l-1.2,1.2,2.458,2.458,1.2-1.2Z" transform="translate(-3 -2.998)" fill="#fae06e"/>
      </g>
    </g>
  </g>
</svg>
