<svg xmlns="http://www.w3.org/2000/svg" width="30" height="28.337" viewBox="0 0 30 28.337">
  <g id="_Tab_Bar_icon1_hover" data-name=" Tab Bar_icon1_hover" transform="translate(-867.24 -158.836)">
    <g id="Group_326" data-name="Group 326">
      <path id="Path_510" data-name="Path 510" d="M895.236,187.173H869.245a2,2,0,0,1-1.994-2.206l1.805-17.007a2,2,0,0,1,1.994-1.787h3.774v2H871.05l-1.809,17,25.995,0-1.8-17-10.32,0v-2h10.316a2,2,0,0,1,1.993,1.787l1.8,17.007a2,2,0,0,1-1.993,2.206Z" fill="#333"/>
    </g>
    <g id="Group_330" data-name="Group 330">
      <g id="Group_327" data-name="Group 327">
        <circle id="Ellipse_108" data-name="Ellipse 108" cx="5.785" cy="5.785" r="5.785" transform="translate(873.299 159.835)" fill="#fbe45a"/>
        <path id="Path_511" data-name="Path 511" d="M879.1,172.4a6.781,6.781,0,1,1,3.6-1.042A6.787,6.787,0,0,1,879.1,172.4Zm-.019-11.567a4.785,4.785,0,1,0,4.056,2.234A4.753,4.753,0,0,0,879.077,160.836Z" fill="#333"/>
      </g>
      <g id="Group_328" data-name="Group 328">
        <path id="Path_512" data-name="Path 512" d="M883.829,174.151a1,1,0,0,1-.848-.467l-1.422-2.26a1,1,0,1,1,1.692-1.065l1.423,2.259a1,1,0,0,1-.845,1.533Z" fill="#333"/>
      </g>
      <g id="Group_329" data-name="Group 329">
        <rect id="Rectangle_212" data-name="Rectangle 212" width="2.923" height="8.954" transform="translate(882.116 173.177) rotate(-32.202)" fill="#333"/>
      </g>
    </g>
    <g id="Group_337" data-name="Group 337">
      <g id="Group_332" data-name="Group 332">
        <g id="Group_331" data-name="Group 331">
          <path id="Path_513" data-name="Path 513" d="M870.189,178.074a1,1,0,0,1-.862-.49c-.191-.323-.283-.524-.283-.524a1,1,0,0,1,1.813-.845c.01.021.074.151.192.35a1,1,0,0,1-.352,1.37A.988.988,0,0,1,870.189,178.074Z" fill="#333"/>
        </g>
      </g>
      <g id="Group_334" data-name="Group 334">
        <g id="Group_333" data-name="Group 333">
          <path id="Path_514" data-name="Path 514" d="M876.35,181.983h-.033a7.98,7.98,0,0,1-1.083-.11,1,1,0,1,1,.338-1.971,6.132,6.132,0,0,0,.81.082,1,1,0,0,1-.032,2Zm7.24-3.838-.02.026a8.018,8.018,0,0,1-.724.813,1,1,0,1,1-1.4-1.43,5.856,5.856,0,0,0,.542-.609,1,1,0,0,1,1.6,1.2Zm-4.426,3.429a1,1,0,0,1-.295-1.956c.152-.046.307-.1.463-.155a1.093,1.093,0,0,0,.188-.1,1,1,0,0,1,1.048,1.7,3.1,3.1,0,0,1-.553.272c-.187.067-.372.13-.555.187A1.016,1.016,0,0,1,879.164,181.574Zm-6.394-.743a.993.993,0,0,1-.552-.166,8.735,8.735,0,0,1-.857-.65,1,1,0,1,1,1.3-1.518,6.626,6.626,0,0,0,.659.5,1,1,0,0,1-.553,1.833Zm9.356-2.562h0Zm10.633-2.075a.994.994,0,0,1-.556-.17,8.155,8.155,0,0,0-.726-.436,1,1,0,0,1,.935-1.768,10.1,10.1,0,0,1,.906.544,1,1,0,0,1-.559,1.83ZM888.269,175a1,1,0,0,1-.153-1.988,6.293,6.293,0,0,1,.968-.076l.156,0a1,1,0,1,1-.044,2l-.112,0a4.363,4.363,0,0,0-.66.051A.911.911,0,0,1,888.269,175Z" fill="#333"/>
        </g>
      </g>
      <g id="Group_336" data-name="Group 336">
        <g id="Group_335" data-name="Group 335">
          <path id="Path_515" data-name="Path 515" d="M895.288,178.434a1,1,0,0,1-.74-.326c-.109-.119-.216-.234-.323-.346a1,1,0,0,1,1.441-1.386q.178.186.36.385a1,1,0,0,1-.738,1.673Z" fill="#333"/>
        </g>
      </g>
    </g>
  </g>
</svg>
