<svg xmlns="http://www.w3.org/2000/svg" width="25.88" height="29.902" viewBox="0 0 25.88 29.902">
  <g id="_Tab_Bar__icon5_hover" data-name=" Tab Bar_ icon5_hover" transform="translate(2064.257 331)">
    <g id="Group_321" data-name="Group 321" transform="translate(-3216.24 -489.236)">
      <circle id="Ellipse_107" data-name="Ellipse 107" cx="6" cy="6" r="6" transform="translate(1158.923 159.236)" fill="#fbe45a"/>
      <path id="Path_506" data-name="Path 506" d="M1164.923,172.236a7,7,0,1,1,7-7A7.008,7.008,0,0,1,1164.923,172.236Zm0-12a5,5,0,1,0,5,5A5.006,5.006,0,0,0,1164.923,160.236Z" fill="#333"/>
    </g>
    <g id="Group_322" data-name="Group 322" transform="translate(-3216.24 -489.236)">
      <path id="Path_507" data-name="Path 507" d="M1171.021,188.138h-12.2a7.412,7.412,0,0,1-5.692-2.428,4.632,4.632,0,0,1-1.075-3.841c.813-4.482,5.588-7.736,11.351-7.736h3.031c5.764,0,10.539,3.254,11.353,7.736a4.639,4.639,0,0,1-1.076,3.841A7.418,7.418,0,0,1,1171.021,188.138Zm-7.614-12.005c-4.719,0-8.754,2.619-9.384,6.093a2.665,2.665,0,0,0,.643,2.2,5.4,5.4,0,0,0,4.157,1.709h12.2a5.413,5.413,0,0,0,4.159-1.709,2.668,2.668,0,0,0,.643-2.2c-.631-3.474-4.666-6.093-9.385-6.093Z" fill="#333"/>
    </g>
  </g>
</svg>
