<svg xmlns="http://www.w3.org/2000/svg" xmlns:xlink="http://www.w3.org/1999/xlink" width="78" height="78" viewBox="0 0 78 78">
  <defs>
    <filter id="Ellipse_2" x="0" y="0" width="78" height="78" filterUnits="userSpaceOnUse">
      <feOffset dy="3" input="SourceAlpha"/>
      <feGaussianBlur stdDeviation="3" result="blur"/>
      <feFlood flood-opacity="0.161"/>
      <feComposite operator="in" in2="blur"/>
      <feComposite in="SourceGraphic"/>
    </filter>
  </defs>
  <g id="_1-0_icon2" data-name="1-0_icon2" transform="translate(-189 -487)">
    <g transform="matrix(1, 0, 0, 1, 189, 487)" filter="url(#Ellipse_2)">
      <circle id="Ellipse_2-2" data-name="Ellipse 2" cx="30" cy="30" r="30" transform="translate(9 6)" fill="#fff"/>
    </g>
    <g id="baseline-favorite-24px" transform="translate(932 -2298)">
      <path id="Path_179" data-name="Path 179" d="M13,23.185l-1.6-1.452C5.74,16.6,2,13.208,2,9.05A5.991,5.991,0,0,1,8.05,3,6.587,6.587,0,0,1,13,5.3,6.587,6.587,0,0,1,17.95,3,5.991,5.991,0,0,1,24,9.05c0,4.158-3.74,7.546-9.4,12.694Z" transform="translate(-717 2809)" fill="#eb715a"/>
    </g>
  </g>
</svg>
