<svg xmlns="http://www.w3.org/2000/svg" width="30" height="26.368" viewBox="0 0 30 26.368">
  <g id="bottom_bar_icon3_hover" transform="translate(1217.438 109)">
    <path id="Path_479" data-name="Path 479" d="M909.494-52.591v20.963l10.3,2.942,8.7-4.045v-19.86l-8.7,3.187Z" transform="translate(-2117 -55)" fill="#f9d94a"/>
    <g id="map_2_" data-name="map (2)" transform="translate(-1217.438 -109)">
      <g id="Group_220" data-name="Group 220" transform="translate(0 0)">
        <g id="Group_219" data-name="Group 219">
          <path id="Path_399" data-name="Path 399" d="M28.795,31.054,20.3,34.45,9.943,31.035a.892.892,0,0,0-.6.019L.552,34.569A.879.879,0,0,0,0,35.385V56.479a.88.88,0,0,0,1.205.816L9.7,53.9l10.355,3.414c.048.016.044.013.079.022a.887.887,0,0,0,.531-.041l8.785-3.514A.879.879,0,0,0,30,52.963V31.87A.879.879,0,0,0,28.795,31.054ZM8.789,52.368,1.758,55.181V35.98l7.031-2.812Zm10.664-6.686-.03,0a4.41,4.41,0,0,1-1.384-.335.879.879,0,0,0-.686,1.618,5.622,5.622,0,0,0,2.1.466v7.836l-8.906-2.936V41.507a4.382,4.382,0,0,1,.724.076.879.879,0,1,0,.331-1.726,6.144,6.144,0,0,0-1.054-.108V33.085l8.906,2.936Zm8.789,6.687-7.031,2.812V35.98l7.031-2.812Z" transform="translate(0 -30.99)" fill="#333"/>
        </g>
      </g>
      <g id="Group_222" data-name="Group 222" transform="translate(3.515 14.987)">
        <g id="Group_221" data-name="Group 221">
          <path id="Path_400" data-name="Path 400" d="M61.43,286.811a.879.879,0,0,0-1.112.556l-.278.834a.879.879,0,1,0,1.668.556l.278-.834A.879.879,0,0,0,61.43,286.811Z" transform="translate(-59.995 -286.766)" fill="#333"/>
        </g>
      </g>
      <g id="Group_224" data-name="Group 224" transform="translate(4.903 10.325)">
        <g id="Group_223" data-name="Group 223">
          <path id="Path_401" data-name="Path 401" d="M86.11,207.438a.879.879,0,0,0-1.243.032,5.933,5.933,0,0,0-1.111,1.665.879.879,0,0,0,1.6.719,4.18,4.18,0,0,1,.782-1.173A.879.879,0,0,0,86.11,207.438Z" transform="translate(-83.68 -207.197)" fill="#333"/>
        </g>
      </g>
      <g id="Group_226" data-name="Group 226" transform="translate(13.458 10.547)">
        <g id="Group_225" data-name="Group 225">
          <path id="Path_402" data-name="Path 402" d="M232.225,212.926a7.157,7.157,0,0,0-.985-1.613.879.879,0,0,0-1.348,1.128,5.89,5.89,0,0,1,.782,1.312.879.879,0,0,0,1.551-.826Z" transform="translate(-229.687 -210.998)" fill="#333"/>
        </g>
      </g>
      <g id="Group_228" data-name="Group 228" transform="translate(21.748 12.732)">
        <g id="Group_227" data-name="Group 227">
          <path id="Path_403" data-name="Path 403" d="M373.85,248.459a.879.879,0,0,0-1.233.159,4.066,4.066,0,0,1-1.036.946.879.879,0,0,0,.945,1.482,5.821,5.821,0,0,0,1.482-1.354A.879.879,0,0,0,373.85,248.459Z" transform="translate(-371.175 -248.276)" fill="#333"/>
        </g>
      </g>
      <g id="Group_230" data-name="Group 230" transform="translate(24.417 8.789)">
        <g id="Group_229" data-name="Group 229">
          <path id="Path_404" data-name="Path 404" d="M418.219,181.053a.879.879,0,0,0-1.132.514l-.309.823a.879.879,0,1,0,1.646.617l.309-.823A.879.879,0,0,0,418.219,181.053Z" transform="translate(-416.722 -180.997)" fill="#333"/>
        </g>
      </g>
    </g>
  </g>
</svg>
