<svg xmlns="http://www.w3.org/2000/svg" width="30.195" height="27.754" viewBox="0 0 30.195 27.754">
  <g id="_Tab_Bar_icon4" data-name=" Tab Bar_icon4" transform="translate(2162.381 290.358)">
    <g id="Group_342" data-name="Group 342" transform="translate(-3216.24 -489.236)">
      <path id="Path_517" data-name="Path 517" d="M1054.859,226.632a.988.988,0,0,1-.307-.048,1,1,0,0,1-.693-.952V204.875a1.931,1.931,0,0,1,1.9-1.958h22.661a1.931,1.931,0,0,1,1.9,1.958V221.16a1.93,1.93,0,0,1-1.9,1.958h-20.51l-2.237,3.1A1,1,0,0,1,1054.859,226.632Zm1-21.715v17.621l.726-1a1,1,0,0,1,.811-.415h20.917v-16.2Zm22.558,0h0Z" fill="#aaa"/>
    </g>
    <g id="Group_354" data-name="Group 354" transform="translate(-3216.24 -489.236)">
      <g id="Group_352" data-name="Group 352">
        <path id="Path_526" data-name="Path 526" d="M1076.2,212.574h-9.112a1,1,0,0,1,0-2h9.112a1,1,0,0,1,0,2Z" fill="#aaa"/>
      </g>
      <g id="Group_353" data-name="Group 353">
        <path id="Path_527" data-name="Path 527" d="M1071.643,215.894h-4.557a1,1,0,0,1,0-2h4.557a1,1,0,0,1,0,2Z" fill="#aaa"/>
      </g>
    </g>
    <g id="Group_370" data-name="Group 370" transform="translate(-3216.24 -489.236)">
      <g id="Group_368" data-name="Group 368">
        <circle id="Ellipse_110" data-name="Ellipse 110" cx="1.81" cy="1.81" r="1.81" transform="translate(1059.275 208.39)" fill="#aaa"/>
      </g>
      <g id="Group_369" data-name="Group 369">
        <path id="Path_534" data-name="Path 534" d="M1062.925,216.809h-3.68c-1.07,0-1.893-.724-1.746-1.536h0a3,3,0,0,1,3.128-2.086h.915a3,3,0,0,1,3.128,2.086h0C1064.818,216.085,1063.995,216.809,1062.925,216.809Z" fill="#aaa"/>
      </g>
    </g>
    <path id="Path_535" data-name="Path 535" d="M1082.128,198.878h-22.6a1.928,1.928,0,0,0-1.926,1.926v3.128h2v-3.054h22.452v16.2h-2.741v2h2.815a1.929,1.929,0,0,0,1.926-1.926V200.8A1.929,1.929,0,0,0,1082.128,198.878Z" transform="translate(-3216.24 -489.236)" fill="#aaa"/>
  </g>
</svg>
